<svg width="37" height="33" viewBox="0 0 37 33" fill="none" xmlns="http://www.w3.org/2000/svg">
<path d="M6.67962 5.98704L8.95956 3.70711C9.35008 3.31658 9.98325 3.31658 10.3738 3.70711L15.6262 8.95956C16.0168 9.35008 16.0168 9.98325 15.6262 10.3738L13.4529 12.5471C13.1824 12.8176 13.1154 13.2308 13.2864 13.5729C15.2642 17.5284 18.4716 20.7358 22.4271 22.7136C22.7692 22.8846 23.1824 22.8176 23.4529 22.5471L25.6262 20.3738C26.0168 19.9832 26.6499 19.9832 27.0404 20.3738L32.2929 25.6262C32.6834 26.0168 32.6834 26.6499 32.2929 27.0404L30.013 29.3204C27.9016 31.4317 24.559 31.6693 22.1703 29.8777L15.6286 24.9714C13.885 23.6638 12.3362 22.115 11.0286 20.3714L6.12226 13.8297C4.33072 11.441 4.56827 8.0984 6.67962 5.98704Z" stroke="#A8A8A8" stroke-width="2"/>
</svg>
