<svg width="33" height="33" viewBox="0 0 33 33" fill="none" xmlns="http://www.w3.org/2000/svg">
<path d="M11 27.5L10.2929 28.2071L11 28.9142L11.7071 28.2071L11 27.5ZM13.75 9.25C14.3023 9.25 14.75 8.80229 14.75 8.25C14.75 7.69772 14.3023 7.25 13.75 7.25L13.75 8.25L13.75 9.25ZM6.875 23.375L6.16789 24.0821L10.2929 28.2071L11 27.5L11.7071 26.7929L7.58211 22.6679L6.875 23.375ZM11 27.5L11.7071 28.2071L15.8321 24.0821L15.125 23.375L14.4179 22.6679L10.2929 26.7929L11 27.5ZM11 27.5L12 27.5L12 10.25L11 10.25L10 10.25L10 27.5L11 27.5ZM13 8.25L13 9.25L13.75 9.25L13.75 8.25L13.75 7.25L13 7.25L13 8.25ZM11 10.25L12 10.25C12 9.69772 12.4477 9.25 13 9.25L13 8.25L13 7.25C11.3431 7.25 10 8.59315 10 10.25L11 10.25Z" fill="#A8A8A8"/>
<path d="M22 5.5L21.2929 4.79289L22 4.08579L22.7071 4.79289L22 5.5ZM22 24.125L23 24.125V24.125L22 24.125ZM19.25 27.125C18.6977 27.125 18.25 26.6773 18.25 26.125C18.25 25.5727 18.6977 25.125 19.25 25.125L19.25 26.125L19.25 27.125ZM17.875 9.625L17.1679 8.9179L21.2929 4.79289L22 5.5L22.7071 6.20711L18.5821 10.3321L17.875 9.625ZM22 5.5L22.7071 4.79289L26.8321 8.91789L26.125 9.625L25.4179 10.3321L21.2929 6.20711L22 5.5ZM22 5.5L23 5.5L23 24.125L22 24.125L21 24.125L21 5.5L22 5.5ZM20 26.125L20 27.125L19.25 27.125L19.25 26.125L19.25 25.125L20 25.125L20 26.125ZM22 24.125L23 24.125C23 25.7819 21.6569 27.125 20 27.125L20 26.125L20 25.125C20.5523 25.125 21 24.6773 21 24.125L22 24.125Z" fill="#A8A8A8"/>
</svg>
